<?xml version="1.0" standalone="no"?>
<!DOCTYPE svg PUBLIC "-//W3C//DTD SVG 20010904//EN"
 "http://www.w3.org/TR/2001/REC-SVG-20010904/DTD/svg10.dtd">
<svg version="1.0" xmlns="http://www.w3.org/2000/svg"
 width="291.000000pt" height="173.000000pt" viewBox="0 0 291.000000 173.000000"
 preserveAspectRatio="xMidYMid meet">
<metadata>
Created by potrace 1.16, written by Peter Selinger 2001-2019
</metadata>
<g transform="translate(0.000000,173.000000) scale(0.100000,-0.100000)"
fill="#000000" stroke="none">
<path d="M856 1578 c-20 -18 -26 -35 -30 -81 -4 -50 -2 -59 16 -68 12 -7 18
-18 15 -29 -2 -10 3 -41 13 -70 l18 -52 26 57 c14 31 23 61 20 66 -3 6 6 19
20 30 19 15 26 29 25 52 -2 56 -19 96 -42 102 -12 4 -29 9 -39 11 -9 3 -28 -6
-42 -18z"/>
<path d="M524 1580 c-12 -5 -24 -16 -28 -26 -9 -24 4 -85 20 -91 8 -3 14 -14
14 -25 0 -12 8 -27 18 -35 12 -10 13 -16 5 -19 -7 -3 -10 -11 -7 -19 3 -7 0
-16 -7 -20 -8 -6 -11 -1 -7 18 6 33 -6 54 -24 40 -7 -5 -32 -17 -54 -26 -40
-15 -42 -15 -37 3 3 12 -3 22 -19 31 -12 7 -24 12 -25 11 -15 -10 -25 3 -21
27 2 17 1 28 -4 25 -14 -9 -9 6 7 22 8 9 15 28 15 44 0 24 -3 27 -22 22 -12
-3 -19 -1 -15 4 3 6 -3 10 -14 11 -17 2 -18 0 -3 -22 20 -31 10 -49 -16 -32
-11 6 -20 18 -20 25 0 7 -4 10 -10 7 -20 -13 -11 -63 16 -84 l27 -21 -23 -20
c-13 -11 -28 -20 -35 -20 -19 0 -35 -47 -35 -105 0 -30 -4 -55 -10 -55 -5 0
-10 -5 -10 -11 0 -7 7 -8 18 -4 44 18 52 18 52 -4 0 -12 -5 -31 -10 -42 -7
-13 -7 -19 0 -19 5 0 10 7 10 15 0 8 5 15 10 15 19 0 10 -27 -17 -54 -22 -22
-29 -40 -33 -87 -5 -46 -3 -58 7 -55 9 4 13 -3 13 -20 0 -14 4 -23 9 -20 11 7
21 -18 21 -55 0 -16 4 -29 10 -29 12 0 1 93 -12 98 -11 5 -10 32 2 32 5 0 12
-17 15 -37 4 -21 9 -50 11 -65 3 -14 -1 -36 -8 -47 -10 -16 -10 -27 -1 -52 7
-18 10 -36 7 -40 -3 -5 -1 -9 4 -9 11 0 4 -38 -10 -56 -7 -10 9 -24 27 -24 2
0 2 26 0 58 -1 31 -1 51 2 44 3 -6 9 -9 15 -6 7 4 7 0 1 -12 -9 -17 -9 -40 -4
-147 1 -29 20 -34 29 -7 3 8 0 10 -8 5 -9 -5 -11 -4 -6 4 4 6 4 17 -2 24 -5 7
-6 40 -2 77 8 74 -4 113 -30 105 -15 -5 -16 -2 -6 30 10 33 12 34 18 13 5 -20
6 -20 7 7 1 22 4 26 10 16 6 -9 6 -22 0 -34 -7 -13 -7 -23 2 -33 16 -19 21
-12 26 34 7 69 18 97 46 110 15 7 27 20 27 28 0 7 6 14 13 14 9 0 17 -29 25
-92 6 -51 17 -131 23 -177 7 -55 7 -87 1 -93 -6 -6 -8 -35 -5 -67 4 -41 11
-61 27 -73 21 -17 21 -17 3 -48 l-19 -31 44 3 43 3 -1 45 c-1 25 -5 95 -9 156
-8 108 -7 115 19 179 15 37 25 74 22 82 -3 8 -2 11 3 8 5 -3 15 20 22 50 13
56 29 74 29 31 0 -34 10 -56 25 -56 7 0 16 -6 18 -12 3 -7 3 5 0 26 -5 32 -3
38 8 31 8 -5 4 3 -8 16 -18 20 -21 31 -15 54 5 16 14 31 21 33 10 3 12 -2 7
-21 -5 -20 -3 -25 7 -21 26 10 29 -210 5 -328 -2 -8 12 -15 37 -18 l40 -5 6
-85 c4 -47 11 -97 17 -112 6 -14 14 -76 18 -137 7 -108 7 -111 30 -111 14 0
24 6 24 14 0 8 7 17 15 20 14 5 14 9 -1 37 -19 38 -13 196 11 273 8 27 15 59
15 71 0 14 7 25 18 27 16 5 21 23 31 125 7 66 12 131 11 144 -4 45 -1 56 11
36 6 -10 7 -31 4 -47 -4 -19 -3 -30 4 -30 6 0 11 -8 12 -17 0 -15 2 -15 9 2
11 26 3 121 -20 215 -10 41 -21 104 -24 139 -4 52 -11 70 -31 90 l-25 26 0
-28 c0 -17 -5 -27 -15 -27 -8 0 -19 -9 -25 -20 -15 -28 -56 -25 -84 5 -13 14
-28 25 -35 25 -6 0 -11 11 -11 25 0 22 -3 24 -19 16 -10 -6 -23 -28 -29 -48
-8 -32 -10 -35 -16 -18 -33 90 -44 109 -64 116 -15 6 -21 5 -17 -1 4 -6 -3 -6
-20 0 -15 6 -28 10 -31 10 -2 0 -5 -21 -6 -47 l-1 -48 -6 45 c-3 25 -3 47 2
48 4 2 4 8 1 14 -4 6 -1 14 6 18 15 9 17 108 3 120 -14 13 -57 18 -79 10z"/>
<path d="M1364 1565 c-22 -22 -25 -31 -19 -66 4 -22 13 -53 21 -67 8 -15 14
-37 14 -49 0 -12 7 -26 16 -31 12 -7 17 -26 19 -68 1 -33 6 -108 10 -168 l8
-108 -34 7 c-42 9 -43 9 -31 32 13 24 17 70 9 113 -7 37 -15 118 -16 161 -1
26 -2 26 -48 18 -25 -5 -47 -10 -48 -12 -18 -21 -34 -75 -35 -118 0 -30 -3
-70 -5 -89 -5 -36 -23 -211 -27 -265 -2 -21 2 -30 15 -33 11 -2 17 3 17 16 0
28 10 52 22 52 5 0 7 -9 3 -20 -5 -15 0 -21 19 -26 23 -5 25 -12 31 -82 4 -43
10 -104 14 -137 5 -33 6 -77 4 -97 -3 -21 2 -79 11 -130 8 -51 16 -124 18
-163 1 -38 7 -73 12 -77 6 -4 25 -8 42 -8 25 0 33 5 38 23 3 14 17 26 37 32
27 8 33 15 35 45 2 19 8 76 13 125 5 50 12 122 16 160 3 39 13 97 20 130 7 33
16 87 20 121 l7 60 39 -2 c35 -2 40 1 44 25 3 14 9 37 13 51 13 45 7 174 -12
245 -47 179 -47 179 -91 188 -22 5 -52 14 -66 22 l-26 12 -6 -76 c-7 -87 9
-174 44 -240 12 -23 19 -44 16 -47 -2 -3 -21 -7 -40 -11 l-36 -5 5 33 c3 20
-3 67 -16 114 -27 100 -34 201 -15 208 7 3 21 30 31 59 33 95 30 138 -11 156
-41 19 -74 14 -101 -13z"/>
<path d="M1865 1576 c-37 -27 -22 -98 38 -188 11 -16 17 -40 15 -60 l-3 -33
-24 53 c-13 28 -25 52 -28 52 -2 0 -21 -9 -42 -19 -44 -23 -52 -41 -75 -161
-34 -174 -38 -212 -27 -223 6 -6 11 -25 11 -41 0 -41 10 -76 22 -76 5 0 6 16
2 38 -7 35 -6 36 11 22 17 -14 18 -13 12 3 -4 10 -7 30 -7 44 0 22 -4 25 -25
21 -14 -3 -25 -1 -25 3 0 8 21 13 46 10 6 -1 15 25 21 56 6 32 17 72 23 88 11
28 13 28 21 10 4 -11 5 -73 2 -137 -4 -73 -2 -122 4 -130 11 -14 22 -125 28
-273 2 -49 9 -121 16 -160 14 -84 15 -91 5 -132 -7 -29 -5 -33 18 -39 44 -11
56 0 56 54 0 49 20 86 35 62 9 -14 21 -13 38 5 10 10 13 28 10 59 -4 30 1 68
15 113 11 37 25 86 30 108 10 40 7 251 -3 293 -6 25 10 31 19 7 4 -11 11 -13
23 -7 44 21 65 -7 44 -58 l-10 -25 0 27 c-1 14 -4 33 -7 42 -9 24 -34 6 -34
-26 0 -17 4 -27 10 -23 9 6 14 -20 11 -55 -1 -12 1 -11 12 3 22 27 27 21 27
-33 0 -28 6 -66 14 -84 7 -18 17 -61 21 -94 5 -42 11 -60 18 -56 7 3 5 0 -3
-8 -9 -7 -14 -21 -12 -31 3 -14 10 -17 29 -12 25 6 25 6 18 -45 -7 -50 -6 -52
16 -48 23 3 25 8 46 198 12 107 29 238 37 290 9 52 16 119 16 148 0 56 17 71
27 22 3 -16 10 -30 15 -30 5 0 6 -5 2 -12 -5 -8 -2 -9 10 -5 13 5 17 3 13 -6
-3 -8 3 -27 14 -43 20 -30 25 -21 10 18 -5 13 -14 42 -20 66 -8 27 -16 40 -23
36 -7 -4 -8 -3 -4 4 4 6 2 19 -4 29 -6 10 -18 59 -28 108 -16 86 -18 90 -44
93 -27 3 -28 6 -28 55 0 70 -29 119 -66 113 -31 -6 -28 -3 -43 -45 -14 -42
-14 -86 0 -112 9 -17 6 -21 -20 -30 -29 -10 -30 -11 -34 -97 -9 -185 -40 -197
-57 -22 -5 57 -16 113 -24 124 -7 12 -31 26 -53 32 l-40 11 -13 -69 c-8 -39
-17 -65 -22 -60 -15 15 -12 101 4 120 35 39 38 138 7 165 -26 21 -68 22 -94 3z"/>
</g>
</svg>
